<svg xmlns="http://www.w3.org/2000/svg" width="512" height="512" viewBox="0 0 512 512" fill="none"><rect width="512" height="512" rx="40.96" fill="#080808"></rect><path d="M375.293 277.074H358.091C354.354 277.074 350.616 277.134 346.889 277.045C345.515 277.005 344.942 277.381 344.576 278.785C340.651 294.109 333.483 307.792 322.262 318.934C295.558 345.479 263.931 353.27 227.796 342.652C192.531 329.661 171.255 304.697 166.133 267.475C158.995 215.55 198.018 168.411 250.357 165.366C284.841 163.359 312.089 177.319 332.079 205.476C332.336 205.832 332.564 206.208 332.791 206.583C332.85 206.672 332.86 206.791 332.949 207.058C332.455 207.097 332.01 207.167 331.555 207.167C316.834 207.167 302.113 207.186 287.392 207.137C286.512 207.137 285.553 206.85 284.752 206.455C261.944 195.164 240.026 196.667 219.728 212.051C191.779 233.228 190.959 275.858 217.662 298.587C239.502 317.174 270.268 317.926 292.948 300.367C300.432 294.574 305.989 287.238 309.834 278.597C310.022 278.162 310.131 277.697 310.329 277.094H273.462V245.21H477.194C483.877 344.54 415.166 450.811 297.872 473.411C175.397 497.001 58.1921 415.229 37.7962 292.171C17.3607 168.866 102.345 53.4406 226.343 36.6137C345.673 20.4196 449.245 101.114 472.063 207.068H435.137C418.369 151.525 384.389 110.605 331.259 86.7484C288.42 67.5092 244.109 65.3638 199.392 79.7191C109.266 108.667 55.6908 200.572 74.8015 293.377C93.843 385.876 179.105 449.338 273.551 440.39C366.168 431.621 431.706 358.045 440.129 277.193H411.597C402.877 328.563 376.618 367.863 330.814 393.251C299.503 410.602 265.74 416 230.525 410.058C149.01 396.306 94.6636 323.245 100.398 244.874C106.063 167.541 165.946 109.853 236.021 101.104C321.145 90.4756 385.862 146.681 404.785 207.068C404.291 207.107 403.826 207.176 403.361 207.176C391.774 207.176 380.177 207.157 368.59 207.216C367.404 207.216 366.919 206.781 366.435 205.763C346.929 165.178 315.005 141.045 270.308 135.281C215.952 128.272 163.464 160.423 143.79 211.714C122.534 267.109 143.483 328.929 194.004 359.884C243.09 389.959 308.005 380.231 346.187 337.105C361.067 320.298 370.666 300.911 374.997 278.893C375.105 278.36 375.175 277.816 375.293 277.084V277.074Z" fill="white"></path></svg>